<svg width="124" height="129" viewBox="0 0 124 129" fill="none" xmlns="http://www.w3.org/2000/svg">
<rect width="20.7314" height="87.9938" rx="10.3657" transform="matrix(0.575418 0.817859 -0.706845 0.707369 63.3546 0)" fill="#1EB980"/>
<rect width="20.7314" height="87.9938" rx="10.3657" transform="matrix(0.575418 0.817859 -0.706845 0.707369 63.3546 0)" fill="#1EB980"/>
<rect width="20.7314" height="87.9938" rx="10.3657" transform="matrix(0.575418 0.817859 -0.706845 0.707369 63.3546 0)" fill="#1EB980"/>
<rect width="20.7314" height="87.9938" rx="10.3657" transform="matrix(0.575418 -0.817859 0.706845 0.707369 0 65.4714)" fill="#1EB980"/>
<rect width="20.7314" height="87.9938" rx="10.3657" transform="matrix(0.575418 -0.817859 0.706845 0.707369 0 65.4714)" fill="#1EB980"/>
<rect width="20.7314" height="87.9938" rx="10.3657" transform="matrix(0.575418 -0.817859 0.706845 0.707369 0 65.4714)" fill="#1EB980"/>
<rect width="20.7314" height="87.9938" rx="10.3657" transform="matrix(0.575418 0.817859 -0.706845 0.707369 112.071 49.8006)" fill="#1EB980"/>
<rect width="20.7314" height="87.9938" rx="10.3657" transform="matrix(0.575418 0.817859 -0.706845 0.707369 112.071 49.8006)" fill="#1EB980"/>
<rect width="20.7314" height="87.9938" rx="10.3657" transform="matrix(0.575418 0.817859 -0.706845 0.707369 112.071 49.8006)" fill="#1EB980"/>
<rect width="22.1336" height="119.783" rx="11.0668" transform="matrix(-0.000895833 -1 0.999999 -0.00127422 2.16614 74.8051)" fill="#1EB980"/>
<rect width="22.1336" height="119.783" rx="11.0668" transform="matrix(-0.000895833 -1 0.999999 -0.00127422 2.16614 74.8051)" fill="#1EB980"/>
<rect width="22.1336" height="119.783" rx="11.0668" transform="matrix(-0.000895833 -1 0.999999 -0.00127422 2.16614 74.8051)" fill="#045D56"/>
</svg>
